<mxfile host="Electron" agent="Mozilla/5.0 (Windows NT 10.0; Win64; x64) AppleWebKit/537.36 (KHTML, like Gecko) draw.io/26.1.1 Chrome/132.0.6834.210 Electron/34.3.3 Safari/537.36" version="26.1.1">
  <diagram name="Page-1" id="eNlP9hcsK0dYgxSnxNnK">
    <mxGraphModel dx="1050" dy="629" grid="1" gridSize="10" guides="1" tooltips="1" connect="1" arrows="1" fold="1" page="1" pageScale="1" pageWidth="827" pageHeight="1169" math="0" shadow="0">
      <root>
        <mxCell id="0" />
        <mxCell id="1" parent="0" />
        <mxCell id="ba13oYBjXlpsPinSoGsV-1" value="&lt;b&gt;&lt;font style=&quot;font-size: 13px;&quot;&gt;graphic_user_interface&lt;/font&gt;&lt;/b&gt;" style="rounded=1;whiteSpace=wrap;html=1;" parent="1" vertex="1">
          <mxGeometry x="90" y="70" width="160" height="90" as="geometry" />
        </mxCell>
        <mxCell id="ba13oYBjXlpsPinSoGsV-2" value="&lt;b&gt;&lt;font style=&quot;font-size: 16px;&quot;&gt;data_access&lt;/font&gt;&lt;/b&gt;" style="rounded=1;whiteSpace=wrap;html=1;" parent="1" vertex="1">
          <mxGeometry x="90" y="390" width="160" height="90" as="geometry" />
        </mxCell>
        <mxCell id="ba13oYBjXlpsPinSoGsV-3" value="&lt;b&gt;&lt;font style=&quot;font-size: 15px;&quot;&gt;data_model&lt;/font&gt;&lt;/b&gt;" style="rounded=1;whiteSpace=wrap;html=1;" parent="1" vertex="1">
          <mxGeometry x="520" y="190" width="160" height="90" as="geometry" />
        </mxCell>
        <mxCell id="ba13oYBjXlpsPinSoGsV-5" value="&lt;font style=&quot;font-size: 15px;&quot;&gt;&lt;b&gt;business_logic&lt;/b&gt;&lt;/font&gt;" style="rounded=1;whiteSpace=wrap;html=1;" parent="1" vertex="1">
          <mxGeometry x="90" y="230" width="160" height="90" as="geometry" />
        </mxCell>
        <mxCell id="41vXWhVww0sSPQPGVYsz-1" value="" style="endArrow=none;dashed=1;html=1;rounded=0;entryX=0;entryY=0.25;entryDx=0;entryDy=0;" edge="1" parent="1" source="41vXWhVww0sSPQPGVYsz-2" target="ba13oYBjXlpsPinSoGsV-3">
          <mxGeometry width="50" height="50" relative="1" as="geometry">
            <mxPoint x="250" y="120" as="sourcePoint" />
            <mxPoint x="300" y="70" as="targetPoint" />
          </mxGeometry>
        </mxCell>
        <mxCell id="41vXWhVww0sSPQPGVYsz-3" value="" style="endArrow=none;dashed=1;html=1;rounded=0;entryX=0;entryY=0.25;entryDx=0;entryDy=0;" edge="1" parent="1" target="41vXWhVww0sSPQPGVYsz-2">
          <mxGeometry width="50" height="50" relative="1" as="geometry">
            <mxPoint x="250" y="120" as="sourcePoint" />
            <mxPoint x="520" y="213" as="targetPoint" />
          </mxGeometry>
        </mxCell>
        <mxCell id="41vXWhVww0sSPQPGVYsz-2" value="" style="triangle;whiteSpace=wrap;html=1;rotation=30;" vertex="1" parent="1">
          <mxGeometry x="510" y="200" width="10" height="15" as="geometry" />
        </mxCell>
        <mxCell id="41vXWhVww0sSPQPGVYsz-4" value="" style="endArrow=none;dashed=1;html=1;rounded=0;exitX=1;exitY=0.5;exitDx=0;exitDy=0;" edge="1" parent="1" source="ba13oYBjXlpsPinSoGsV-5" target="41vXWhVww0sSPQPGVYsz-5">
          <mxGeometry width="50" height="50" relative="1" as="geometry">
            <mxPoint x="250" y="240" as="sourcePoint" />
            <mxPoint x="510" y="240" as="targetPoint" />
          </mxGeometry>
        </mxCell>
        <mxCell id="41vXWhVww0sSPQPGVYsz-5" value="" style="triangle;whiteSpace=wrap;html=1;" vertex="1" parent="1">
          <mxGeometry x="510" y="230" width="10" height="20" as="geometry" />
        </mxCell>
        <mxCell id="41vXWhVww0sSPQPGVYsz-6" value="" style="endArrow=none;dashed=1;html=1;rounded=0;entryX=0;entryY=0.889;entryDx=0;entryDy=0;entryPerimeter=0;" edge="1" parent="1" source="41vXWhVww0sSPQPGVYsz-7" target="ba13oYBjXlpsPinSoGsV-3">
          <mxGeometry width="50" height="50" relative="1" as="geometry">
            <mxPoint x="250" y="360" as="sourcePoint" />
            <mxPoint x="300" y="310" as="targetPoint" />
          </mxGeometry>
        </mxCell>
        <mxCell id="41vXWhVww0sSPQPGVYsz-8" value="" style="endArrow=none;dashed=1;html=1;rounded=0;entryX=0;entryY=0.5;entryDx=0;entryDy=0;exitX=1;exitY=0.5;exitDx=0;exitDy=0;" edge="1" parent="1" source="ba13oYBjXlpsPinSoGsV-2" target="41vXWhVww0sSPQPGVYsz-7">
          <mxGeometry width="50" height="50" relative="1" as="geometry">
            <mxPoint x="250" y="360" as="sourcePoint" />
            <mxPoint x="520" y="270" as="targetPoint" />
          </mxGeometry>
        </mxCell>
        <mxCell id="41vXWhVww0sSPQPGVYsz-7" value="" style="triangle;whiteSpace=wrap;html=1;rotation=-30;" vertex="1" parent="1">
          <mxGeometry x="510" y="260" width="10" height="20" as="geometry" />
        </mxCell>
        <mxCell id="41vXWhVww0sSPQPGVYsz-9" value="" style="endArrow=none;dashed=1;html=1;rounded=0;entryX=0.44;entryY=-0.031;entryDx=0;entryDy=0;entryPerimeter=0;" edge="1" parent="1" source="41vXWhVww0sSPQPGVYsz-14" target="ba13oYBjXlpsPinSoGsV-5">
          <mxGeometry width="50" height="50" relative="1" as="geometry">
            <mxPoint x="160" y="160" as="sourcePoint" />
            <mxPoint x="210" y="110" as="targetPoint" />
          </mxGeometry>
        </mxCell>
        <mxCell id="41vXWhVww0sSPQPGVYsz-10" value="" style="endArrow=none;dashed=1;html=1;rounded=0;entryX=0.438;entryY=0;entryDx=0;entryDy=0;entryPerimeter=0;" edge="1" parent="1" source="41vXWhVww0sSPQPGVYsz-11" target="ba13oYBjXlpsPinSoGsV-2">
          <mxGeometry width="50" height="50" relative="1" as="geometry">
            <mxPoint x="160" y="320" as="sourcePoint" />
            <mxPoint x="210" y="270" as="targetPoint" />
          </mxGeometry>
        </mxCell>
        <mxCell id="41vXWhVww0sSPQPGVYsz-12" value="" style="endArrow=none;dashed=1;html=1;rounded=0;entryX=0;entryY=0.5;entryDx=0;entryDy=0;" edge="1" parent="1" target="41vXWhVww0sSPQPGVYsz-11">
          <mxGeometry width="50" height="50" relative="1" as="geometry">
            <mxPoint x="160" y="320" as="sourcePoint" />
            <mxPoint x="160" y="380" as="targetPoint" />
          </mxGeometry>
        </mxCell>
        <mxCell id="41vXWhVww0sSPQPGVYsz-11" value="" style="triangle;whiteSpace=wrap;html=1;rotation=90;" vertex="1" parent="1">
          <mxGeometry x="160" y="380" width="10" height="20" as="geometry" />
        </mxCell>
        <mxCell id="41vXWhVww0sSPQPGVYsz-13" style="edgeStyle=orthogonalEdgeStyle;rounded=0;orthogonalLoop=1;jettySize=auto;html=1;exitX=0;exitY=0.25;exitDx=0;exitDy=0;entryX=0;entryY=0.25;entryDx=0;entryDy=0;" edge="1" parent="1" source="41vXWhVww0sSPQPGVYsz-11" target="41vXWhVww0sSPQPGVYsz-11">
          <mxGeometry relative="1" as="geometry" />
        </mxCell>
        <mxCell id="41vXWhVww0sSPQPGVYsz-15" value="" style="endArrow=none;dashed=1;html=1;rounded=0;entryX=0;entryY=0.5;entryDx=0;entryDy=0;" edge="1" parent="1" target="41vXWhVww0sSPQPGVYsz-14">
          <mxGeometry width="50" height="50" relative="1" as="geometry">
            <mxPoint x="160" y="160" as="sourcePoint" />
            <mxPoint x="160" y="227" as="targetPoint" />
          </mxGeometry>
        </mxCell>
        <mxCell id="41vXWhVww0sSPQPGVYsz-14" value="" style="triangle;whiteSpace=wrap;html=1;rotation=90;" vertex="1" parent="1">
          <mxGeometry x="160" y="215" width="10" height="20" as="geometry" />
        </mxCell>
      </root>
    </mxGraphModel>
  </diagram>
</mxfile>
